<svg width="209" height="60" viewBox="0 0 209 60" fill="none" xmlns="http://www.w3.org/2000/svg">
<path d="M10.0012 0H47.5012C51.6362 0 55.0012 3.365 55.0012 7.5V52.5C55.0012 56.635 51.6362 60 47.5012 60H5.00122V5C5.00122 2.2425 7.24372 0 10.0012 0ZM10.0012 45H40.0012V5H30.0012V27.5L23.7512 21.25L17.5012 27.5V5H10.0012V45ZM47.5012 5H45.0012V45H47.5012C48.3787 45 49.2187 45.1525 50.0012 45.43V7.5C50.0012 6.1225 48.8787 5 47.5012 5ZM47.5012 55C48.8787 55 50.0012 53.8775 50.0012 52.5C50.0012 51.1225 48.8787 50 47.5012 50H10.0012V55H47.5012Z" fill="white"/>
<path d="M70.9297 20.084H76.9941C79.6699 20.084 81.6816 20.4844 83.0293 21.2852C84.377 22.0859 85.0508 23.4482 85.0508 25.3721C85.0508 26.2021 84.8896 26.9492 84.5674 27.6133C84.2549 28.2676 83.7959 28.8096 83.1904 29.2393C82.585 29.6689 81.8379 29.9668 80.9492 30.1328V30.2793C81.8867 30.4258 82.7168 30.6943 83.4395 31.085C84.1621 31.4756 84.7285 32.0225 85.1387 32.7256C85.5488 33.4287 85.7539 34.3223 85.7539 35.4062C85.7539 36.7246 85.4463 37.8379 84.8311 38.7461C84.2256 39.6543 83.3662 40.3428 82.2529 40.8115C81.1396 41.2705 79.8213 41.5 78.2979 41.5H70.9297V20.084ZM73.4199 29.2686H77.5215C79.3867 29.2686 80.6758 28.9609 81.3887 28.3457C82.1113 27.7305 82.4727 26.832 82.4727 25.6504C82.4727 24.4297 82.043 23.5508 81.1836 23.0137C80.334 22.4766 78.9766 22.208 77.1113 22.208H73.4199V29.2686ZM73.4199 31.3633V39.376H77.873C79.7773 39.376 81.125 39.0049 81.916 38.2627C82.707 37.5107 83.1025 36.5 83.1025 35.2305C83.1025 34.4199 82.9219 33.7266 82.5605 33.1504C82.209 32.5742 81.6328 32.1348 80.832 31.832C80.041 31.5195 78.9814 31.3633 77.6533 31.3633H73.4199ZM103.801 33.4434C103.801 34.7617 103.63 35.9385 103.288 36.9736C102.946 38.0088 102.453 38.8828 101.809 39.5957C101.164 40.3086 100.383 40.8555 99.4648 41.2363C98.5566 41.6074 97.5264 41.793 96.374 41.793C95.2998 41.793 94.3135 41.6074 93.415 41.2363C92.5264 40.8555 91.7549 40.3086 91.1006 39.5957C90.4561 38.8828 89.9531 38.0088 89.5918 36.9736C89.2402 35.9385 89.0645 34.7617 89.0645 33.4434C89.0645 31.6855 89.3623 30.1914 89.958 28.9609C90.5537 27.7207 91.4033 26.7783 92.5068 26.1338C93.6201 25.4795 94.9434 25.1523 96.4766 25.1523C97.9414 25.1523 99.2207 25.4795 100.314 26.1338C101.418 26.7881 102.272 27.7354 102.878 28.9756C103.493 30.2061 103.801 31.6953 103.801 33.4434ZM91.584 33.4434C91.584 34.7324 91.7549 35.8506 92.0967 36.7979C92.4385 37.7451 92.9658 38.4775 93.6787 38.9951C94.3916 39.5127 95.3096 39.7715 96.4326 39.7715C97.5459 39.7715 98.459 39.5127 99.1719 38.9951C99.8945 38.4775 100.427 37.7451 100.769 36.7979C101.11 35.8506 101.281 34.7324 101.281 33.4434C101.281 32.1641 101.11 31.0605 100.769 30.1328C100.427 29.1953 99.8994 28.4727 99.1865 27.9648C98.4736 27.457 97.5508 27.2031 96.418 27.2031C94.748 27.2031 93.5225 27.7549 92.7412 28.8584C91.9697 29.9619 91.584 31.4902 91.584 33.4434ZM121.848 33.4434C121.848 34.7617 121.677 35.9385 121.335 36.9736C120.993 38.0088 120.5 38.8828 119.855 39.5957C119.211 40.3086 118.43 40.8555 117.512 41.2363C116.604 41.6074 115.573 41.793 114.421 41.793C113.347 41.793 112.36 41.6074 111.462 41.2363C110.573 40.8555 109.802 40.3086 109.147 39.5957C108.503 38.8828 108 38.0088 107.639 36.9736C107.287 35.9385 107.111 34.7617 107.111 33.4434C107.111 31.6855 107.409 30.1914 108.005 28.9609C108.601 27.7207 109.45 26.7783 110.554 26.1338C111.667 25.4795 112.99 25.1523 114.523 25.1523C115.988 25.1523 117.268 25.4795 118.361 26.1338C119.465 26.7881 120.319 27.7354 120.925 28.9756C121.54 30.2061 121.848 31.6953 121.848 33.4434ZM109.631 33.4434C109.631 34.7324 109.802 35.8506 110.144 36.7979C110.485 37.7451 111.013 38.4775 111.726 38.9951C112.438 39.5127 113.356 39.7715 114.479 39.7715C115.593 39.7715 116.506 39.5127 117.219 38.9951C117.941 38.4775 118.474 37.7451 118.815 36.7979C119.157 35.8506 119.328 34.7324 119.328 33.4434C119.328 32.1641 119.157 31.0605 118.815 30.1328C118.474 29.1953 117.946 28.4727 117.233 27.9648C116.521 27.457 115.598 27.2031 114.465 27.2031C112.795 27.2031 111.569 27.7549 110.788 28.8584C110.017 29.9619 109.631 31.4902 109.631 33.4434ZM128.469 18.707V30.543C128.469 30.9336 128.454 31.4121 128.425 31.9785C128.396 32.5352 128.371 33.0283 128.352 33.458H128.454C128.659 33.2041 128.957 32.8281 129.348 32.3301C129.748 31.832 130.085 31.4316 130.358 31.1289L135.69 25.4453H138.547L132.087 32.3008L139.016 41.5H136.086L130.417 33.8975L128.469 35.6846V41.5H126.052V18.707H128.469ZM152.199 37.1055C152.199 38.1309 151.94 38.9951 151.423 39.6982C150.915 40.3916 150.183 40.9141 149.226 41.2656C148.278 41.6172 147.146 41.793 145.827 41.793C144.704 41.793 143.732 41.7051 142.912 41.5293C142.092 41.3535 141.374 41.1045 140.759 40.7822V38.541C141.413 38.8633 142.194 39.1562 143.103 39.4199C144.011 39.6836 144.938 39.8154 145.886 39.8154C147.272 39.8154 148.278 39.5908 148.903 39.1416C149.528 38.6924 149.841 38.082 149.841 37.3105C149.841 36.8711 149.714 36.4854 149.46 36.1533C149.216 35.8115 148.801 35.4844 148.215 35.1719C147.629 34.8496 146.818 34.498 145.783 34.1172C144.758 33.7266 143.869 33.3408 143.117 32.96C142.375 32.5693 141.799 32.0957 141.389 31.5391C140.988 30.9824 140.788 30.2598 140.788 29.3711C140.788 28.0137 141.335 26.9736 142.429 26.251C143.532 25.5186 144.978 25.1523 146.765 25.1523C147.731 25.1523 148.635 25.25 149.475 25.4453C150.324 25.6309 151.115 25.8848 151.848 26.207L151.027 28.1553C150.363 27.8721 149.655 27.6328 148.903 27.4375C148.151 27.2422 147.385 27.1445 146.604 27.1445C145.48 27.1445 144.616 27.3301 144.011 27.7012C143.415 28.0723 143.117 28.5801 143.117 29.2246C143.117 29.7227 143.254 30.1328 143.527 30.4551C143.811 30.7773 144.26 31.0801 144.875 31.3633C145.49 31.6465 146.301 31.9785 147.307 32.3594C148.312 32.7305 149.182 33.1162 149.914 33.5166C150.646 33.9072 151.208 34.3857 151.599 34.9521C151.999 35.5088 152.199 36.2266 152.199 37.1055ZM158.542 18.707V25.5186C158.542 25.9092 158.532 26.3047 158.513 26.7051C158.493 27.0957 158.459 27.457 158.41 27.7891H158.571C158.903 27.2227 159.323 26.749 159.831 26.3682C160.349 25.9775 160.935 25.6846 161.589 25.4893C162.243 25.2842 162.937 25.1816 163.669 25.1816C164.958 25.1816 166.032 25.3867 166.892 25.7969C167.761 26.207 168.41 26.8418 168.84 27.7012C169.279 28.5605 169.499 29.6738 169.499 31.041V41.5H167.097V31.2021C167.097 29.8643 166.789 28.8633 166.174 28.1992C165.568 27.5352 164.636 27.2031 163.376 27.2031C162.185 27.2031 161.232 27.4326 160.52 27.8916C159.816 28.3408 159.309 29.0049 158.996 29.8838C158.693 30.7627 158.542 31.8369 158.542 33.1064V41.5H156.11V18.707H158.542ZM188.352 33.4434C188.352 34.7617 188.181 35.9385 187.839 36.9736C187.497 38.0088 187.004 38.8828 186.359 39.5957C185.715 40.3086 184.934 40.8555 184.016 41.2363C183.107 41.6074 182.077 41.793 180.925 41.793C179.851 41.793 178.864 41.6074 177.966 41.2363C177.077 40.8555 176.306 40.3086 175.651 39.5957C175.007 38.8828 174.504 38.0088 174.143 36.9736C173.791 35.9385 173.615 34.7617 173.615 33.4434C173.615 31.6855 173.913 30.1914 174.509 28.9609C175.104 27.7207 175.954 26.7783 177.058 26.1338C178.171 25.4795 179.494 25.1523 181.027 25.1523C182.492 25.1523 183.771 25.4795 184.865 26.1338C185.969 26.7881 186.823 27.7354 187.429 28.9756C188.044 30.2061 188.352 31.6953 188.352 33.4434ZM176.135 33.4434C176.135 34.7324 176.306 35.8506 176.647 36.7979C176.989 37.7451 177.517 38.4775 178.229 38.9951C178.942 39.5127 179.86 39.7715 180.983 39.7715C182.097 39.7715 183.01 39.5127 183.723 38.9951C184.445 38.4775 184.978 37.7451 185.319 36.7979C185.661 35.8506 185.832 34.7324 185.832 33.4434C185.832 32.1641 185.661 31.0605 185.319 30.1328C184.978 29.1953 184.45 28.4727 183.737 27.9648C183.024 27.457 182.102 27.2031 180.969 27.2031C179.299 27.2031 178.073 27.7549 177.292 28.8584C176.521 29.9619 176.135 31.4902 176.135 33.4434ZM200.1 25.1523C202.102 25.1523 203.698 25.8408 204.89 27.2178C206.081 28.5947 206.677 30.665 206.677 33.4287C206.677 35.2549 206.403 36.7881 205.856 38.0283C205.31 39.2686 204.538 40.2061 203.542 40.8408C202.556 41.4756 201.389 41.793 200.041 41.793C199.191 41.793 198.444 41.6807 197.8 41.4561C197.155 41.2314 196.604 40.9287 196.145 40.5479C195.686 40.167 195.305 39.752 195.002 39.3027H194.826C194.855 39.6836 194.89 40.1426 194.929 40.6797C194.978 41.2168 195.002 41.6855 195.002 42.0859V48.6777H192.556V25.4453H194.562L194.885 27.8184H195.002C195.314 27.3301 195.695 26.8857 196.145 26.4854C196.594 26.0752 197.141 25.7529 197.785 25.5186C198.439 25.2744 199.211 25.1523 200.1 25.1523ZM199.675 27.2031C198.562 27.2031 197.663 27.418 196.979 27.8477C196.306 28.2773 195.812 28.9219 195.5 29.7812C195.188 30.6309 195.021 31.7002 195.002 32.9893V33.458C195.002 34.8154 195.148 35.9629 195.441 36.9004C195.744 37.8379 196.237 38.5508 196.921 39.0391C197.614 39.5273 198.542 39.7715 199.704 39.7715C200.7 39.7715 201.53 39.5029 202.194 38.9658C202.858 38.4287 203.352 37.6816 203.674 36.7246C204.006 35.7578 204.172 34.6494 204.172 33.3994C204.172 31.5049 203.801 30.001 203.059 28.8877C202.326 27.7646 201.198 27.2031 199.675 27.2031Z" fill="white"/>
</svg>
